
Pairon Talle [Soul of Sand] 2010 Critically Acclaimed 1CD Dvdrip X264 AAC [RRG DBB][DADA]
 


Cover -
 
http://desibbrg.org/images/99884660700051225370.jpg


Screens -


 
http://desibbrg.org/images/39793715499368906230.jpg 
http://desibbrg.org/images/60535655868248968412.jpg 
http://desibbrg.org/images/57007222397978133915.jpg 
http://desibbrg.org/images/52807117148997255396.jpg 
http://desibbrg.org/images/94377200680257629433.jpg



Info - 
 

Pairon.Talle.2010.Critically.Acclaimed.1CD.Dvdrip. X264.AAC.RRG.DADA.

Format : Mp4 Video
File size : 587 MiB
Duration : 1h 38mn
Overall bit rate : 829 Kbps


Video
ID : 1
Format : VP8
Codec ID : V_VP8
Duration : 1h 38mn
Bit rate : 659 Kbps
Width : 854 pixels
Height : 480 pixels
Display aspect ratio : 16:9
Frame rate : 1 000.000 fps
Bits/(Pixel*Frame) : 0.002
Stream size : 467 MiB (80%)
Language : English / English

Audio
ID : 2
Format : Vorbis
Format settings, Floor : 1
Codec ID : A_VORBIS
Duration : 1h 38mn
Bit rate : 128 Kbps
Channel(s) : 2 channels
Sampling rate : 44.1 KHz
Bit depth : 16 bits
Stream size : 90.6 MiB (15%)
Language : English 
 
http://www.imdb.com/title/tt1709731/



About this movie

    Genres:
Indian Cinema, Drama, Mystery & Suspense
    Language:
Hindi
    Running time:
1:38:59
    Released:
Sep 12, 2010

Cast & Crew
Cast

    Dibyendu Bhattacharya
    Saba Joshi
    Avtar Sahani
    Geeta Bisht

Directors

    Sidharth Srinivasan

Producers

    Sidharth Srinivasan

Writers

    Sidharth Srinivasan


Bhanu Kumar, a lower-caste watchman stands guard over his feudal master's disused, barren silica mine. A creature of habit, Bhanu reflects powerlessness so complete it can only make the world stand still. But one night, a runaway couple in desperate search of refuge come to Bhanu seeking shelter. Bhanu must make a choice between habit and humanity. The rusted gate of the Royal Silica Mine opens exposing a bloody world of lust, fear & violence in the name of caste, ownership and honour. 
